<svg id="5252794a-1f6f-4f8c-bb4e-fdb9f6fe9af4" data-name="Слой 1" xmlns="http://www.w3.org/2000/svg" viewBox="0 0 130.81 161.62"><title>43</title><path d="M152.16,114.69l-5,2.62c1.86,18.08,3.66,32.82,5.42,42.26.83,4.48-.7,6.68-5.44,7.69-5.75,1.23-15.39.24-28.73-3.06L117,170c14.16,3.5,24.57,4.56,31.43,3.1,7.87-1.69,11.51-6.93,10.08-14.66C156.79,149.23,154,132.63,152.16,114.69Z" transform="translate(-28 -16.38)"/><path d="M37.49,73.84l6,.49q-4.86,60.15-9.26,83.81c-.92,5,1.11,7.29,7.45,8,7.48.84,19.75-1.16,36.61-6.06l1.67,5.77c-17.56,5.1-30.48,7.2-38.95,6.25C31.38,171,26.71,165.67,28.31,157Q32.64,133.75,37.49,73.84Z" transform="translate(-28 -16.38)"/><path d="M146.43,68.3l5.95-.77a52.33,52.33,0,0,1,.44,6.76c0,1,.07,10.74.09,13.09.06,8.82.09,17.73.09,27.62,0,8.36-7.89,23.59-18.91,37.67-12,15.27-24.44,25.33-33.74,25.33s-22-10-34.07-25.15C55,138.75,47,123.54,47,115q0-16.52.22-37.28l6,.06Q53,98.53,53,115c0,6.78,7.49,21,18,34.1C82,162.87,93.52,172,100.35,172s18.15-9.16,29-23C139.61,135.88,147,121.62,147,115c0-9.87,0-18.77-.09-27.58,0-2.32-.09-12.1-.09-13.13A45.88,45.88,0,0,0,146.43,68.3Z" transform="translate(-28 -16.38)"/><path d="M97,118a3,3,0,0,1,6,0v14a3,3,0,0,1-6,0Zm37.2-74.56,4.42-4.06c7.12,7.73,12.2,17.1,13.68,27.57.56,4-5.62,5.41-14.09,5.66A61.52,61.52,0,0,1,110.89,67l2.5-5.46A55.44,55.44,0,0,0,138,66.61a39.21,39.21,0,0,0,7.6-.9l.36-.09C144.39,57.2,140,49.75,134.2,43.44Z" transform="translate(-28 -16.38)"/><path d="M130.39,44a121,121,0,0,1-10.62,9.52c-10.09,8.16-20.88,15.07-29.16,18.25-7.94,3.06-19.32,3.93-31.75,3a120.47,120.47,0,0,1-13-1.61c-1.14-.22-2.14-.44-2.93-.64.93-29.75,22.4-50.16,49.87-50.16a59.28,59.28,0,0,1,20.3,4.06c8.35,3.25,15.17,8.15,19.73,14.74A30.35,30.35,0,0,1,130.39,44Zm-15.1-23.13a65.4,65.4,0,0,0-22.48-4.47c-31.36,0-55.9,24-55.9,58.17,0,1.8.74,2.38,2.12,3a12.13,12.13,0,0,0,1.48.53c1.07.31,2.53.65,4.25,1a125.61,125.61,0,0,0,13.67,1.71c13.24,1,25.4,0,34.33-3.43S113,66.69,123.55,58.16a126.53,126.53,0,0,0,11.16-10A32.74,32.74,0,0,0,138,44.36c1.35-2,1.89-3.37.77-5.16C133.42,30.79,125.26,24.73,115.29,20.85Z" transform="translate(-28 -16.38)"/><path d="M65.41,88.36A21.34,21.34,0,0,1,75,86a22.25,22.25,0,0,1,11.54,3.43,3,3,0,0,1-3.08,5.14,15.21,15.21,0,0,0-16.92,0L64.66,95.7l-6.11-5.4a3,3,0,1,1,4-4.49Z" transform="translate(-28 -16.38)"/><circle cx="47" cy="84.62" r="4"/><path d="M134.32,88.23A21.29,21.29,0,0,0,125,86a22.25,22.25,0,0,0-11.54,3.43,3,3,0,1,0,3.08,5.14,15.21,15.21,0,0,1,16.92,0l2.14,1.29L140.71,90a3,3,0,1,0-4.51-4Z" transform="translate(-28 -16.38)"/><circle cx="97" cy="84.62" r="4"/><path d="M87,146.81A3,3,0,1,1,89,141.19a32.24,32.24,0,0,0,11.21,2.14,28.17,28.17,0,0,0,10.63-2.11,3,3,0,1,1,2.24,5.56,34,34,0,0,1-12.87,2.55A37.91,37.91,0,0,1,87,146.81ZM58,83a5,5,0,0,0-5,5v13.45a5,5,0,0,0,5,5H86a5,5,0,0,0,5-5V88a5,5,0,0,0-5-5Zm0-6H86A11,11,0,0,1,97,88v13.45a11,11,0,0,1-11,11H58a11,11,0,0,1-11-11V88A11,11,0,0,1,58,77Zm55,6a5,5,0,0,0-5,5v13.45a5,5,0,0,0,5,5h28a5,5,0,0,0,5-5V88a5,5,0,0,0-5-5Zm0-6h28a11,11,0,0,1,11,11v13.45a11,11,0,0,1-11,11H113a11,11,0,0,1-11-11V88A11,11,0,0,1,113,77Z" transform="translate(-28 -16.38)"/><path d="M95,95a3,3,0,0,1,0-6h8a3,3,0,0,1,0,6Z" transform="translate(-28 -16.38)"/></svg>
