<svg id="e7ca3713-52af-44bf-81d4-99503b63feac" data-name="Слой 1" xmlns="http://www.w3.org/2000/svg" viewBox="0 0 988.92 451.5"><title>Безымянный-2</title><path d="M-163,.48V452h34V369h10v83H77.59V44.78H-119v55.65h-10v-66H297.46v66h-10V44.78H90.87V452h196.6V369h10v83h34V.48ZM35.1,222a12.71,12.71,0,1,1-12.7,12.71A12.71,12.71,0,0,1,35.1,222ZM-119,147.45V322h-10V147.45Zm252.37,100a12.71,12.71,0,1,1,12.7-12.71A12.71,12.71,0,0,1,133.36,247.44ZM287.47,322V147.45h10V322ZM331.46.48V452h34V369H377v82.45l141.08-30.85V77.84L377,47v53.44H365.46v-66H791.92v66H779.38V47L638.3,77.84V420.63l141.08,30.85V369h12.54v83h34V.48Zm163,226.57c5,0,9.12,4.79,9.12,10.69s-4.08,10.7-9.12,10.7-9.12-4.79-9.12-10.7S489.39,227.05,494.43,227.05ZM377,147.45V322H365.46V147.45Zm285,101c-5,0-9.13-4.79-9.13-10.7s4.09-10.69,9.13-10.69,9.12,4.79,9.12,10.69S667,248.44,662,248.44Zm130,73.56H779.38V147.45h12.54Z" transform="translate(163 -0.48)" style="fill:#7383bf"/></svg>
