<!-- Generator: Adobe Illustrator 22.0.1, SVG Export Plug-In  -->
<svg version="1.1"
	 xmlns="http://www.w3.org/2000/svg" xmlns:xlink="http://www.w3.org/1999/xlink" xmlns:a="http://ns.adobe.com/AdobeSVGViewerExtensions/3.0/"
	 x="0px" y="0px" width="164.2px" height="357.1px" viewBox="0 0 164.2 357.1" style="enable-background:new 0 0 164.2 357.1;"
	 xml:space="preserve">
<style type="text/css">
	.st0{fill:#063F66;}
	.st1{fill:#022730;}
	.st2{fill:#DCF9F6;}
	.st3{fill:#95BFB9;}
	.st4{fill:#78A8A0;}
	.st5{fill:#A3DCE2;}
	.st6{fill:#F8B000;}
	.st7{fill:#F6D100;}
	.st8{fill:#EAA200;}
	.st9{fill:#EAC300;}
</style>
<defs>
</defs>
<g>
	<circle class="st0" cx="82.1" cy="275.2" r="81.9"/>
	<path class="st1" d="M24.1,217.2c32-32,84-32,116.1,0s32,84,0,116.1"/>
	<g>
		<ellipse class="st2" cx="44" cy="332.7" rx="0.8" ry="7.1"/>
		<ellipse class="st2" cx="44" cy="333" rx="7.1" ry="0.8"/>
		
			<ellipse transform="matrix(0.7054 -0.7088 0.7088 0.7054 -130.743 170.8484)" class="st2" cx="140.2" cy="242.7" rx="7.1" ry="0.8"/>
		
			<ellipse transform="matrix(0.7088 -0.7054 0.7054 0.7088 -130.4782 169.5141)" class="st2" cx="140.1" cy="242.8" rx="0.8" ry="7.1"/>
		<ellipse class="st2" cx="120.4" cy="220.9" rx="0.3" ry="3.2"/>
		<ellipse class="st2" cx="120.4" cy="220.9" rx="3.2" ry="0.3"/>
		
			<ellipse transform="matrix(0.7035 -0.7107 0.7107 0.7035 -143.8656 109.0203)" class="st2" cx="58.7" cy="226.9" rx="0.3" ry="3.4"/>
		
			<ellipse transform="matrix(0.7107 -0.7035 0.7035 0.7107 -142.6064 106.9721)" class="st2" cx="58.8" cy="226.9" rx="3.4" ry="0.3"/>
		
			<ellipse transform="matrix(0.7053 -0.7089 0.7089 0.7053 -212.5734 114.8626)" class="st2" cx="31.9" cy="313.1" rx="0.3" ry="3.4"/>
		
			<ellipse transform="matrix(0.7089 -0.7053 0.7053 0.7089 -211.4498 113.7286)" class="st2" cx="32.1" cy="313" rx="3.4" ry="0.3"/>
		
			<ellipse transform="matrix(0.6999 -0.7143 0.7143 0.6999 -125.5741 136.6048)" class="st2" cx="99.8" cy="217.7" rx="1.6" ry="0.3"/>
		
			<ellipse transform="matrix(0.7143 -0.6999 0.6999 0.7143 -123.9496 132.0905)" class="st2" cx="99.8" cy="217.8" rx="0.3" ry="1.6"/>
		
			<ellipse transform="matrix(0.6998 -0.7144 0.7144 0.6998 -221.4546 152.6779)" class="st2" cx="70.9" cy="339.8" rx="1.6" ry="0.3"/>
		<ellipse transform="matrix(0.7144 -0.6998 0.6998 0.7144 -217.6092 146.7826)" class="st2" cx="71" cy="340" rx="0.3" ry="1.6"/>
		<circle class="st2" cx="82.1" cy="275.2" r="52.5"/>
	</g>
	<path class="st3" d="M105.7,275.2c0,28.9,5.3,52.5-23.6,52.5s-52.5-23.6-52.5-52.5s23.6-52.5,52.5-52.5S105.7,246.3,105.7,275.2z"
		/>
	<g>
		<circle class="st4" cx="45.6" cy="247.4" r="3.2"/>
		<circle class="st4" cx="41.1" cy="259.2" r="0.5"/>
		<circle class="st4" cx="62.4" cy="266" r="9.7"/>
		<circle class="st4" cx="66.6" cy="244.8" r="2.6"/>
		<circle class="st4" cx="84.7" cy="243.4" r="0.8"/>
		<circle class="st4" cx="91.6" cy="234.5" r="0.8"/>
		<circle class="st4" cx="66.3" cy="235" r="1.3"/>
		<circle class="st4" cx="76.8" cy="230.6" r="0.5"/>
		<circle class="st4" cx="88.9" cy="260.8" r="2.1"/>
		<circle class="st4" cx="104.7" cy="259.5" r="1.3"/>
	</g>
	<circle class="st3" cx="108.1" cy="244.5" r="2.1"/>
	<g>
		<circle class="st4" cx="98.9" cy="286.8" r="5.8"/>
		<circle class="st4" cx="51.4" cy="290.2" r="1.8"/>
		<circle class="st4" cx="70.3" cy="282.3" r="0.8"/>
		<circle class="st4" cx="79.5" cy="302" r="3.2"/>
		<circle class="st4" cx="41.1" cy="276.8" r="2.1"/>
		<circle class="st4" cx="87.9" cy="275.5" r="0.5"/>
	</g>
	<circle class="st3" cx="113.1" cy="276.5" r="1.3"/>
	<g>
		<circle class="st4" cx="57.4" cy="304.6" r="3.2"/>
		<circle class="st4" cx="63.7" cy="293.3" r="1.1"/>
		<circle class="st4" cx="96.3" cy="305.7" r="1.1"/>
		<circle class="st4" cx="79.5" cy="314.3" r="0.8"/>
		<circle class="st4" cx="66.3" cy="313" r="0.5"/>
	</g>
	<circle class="st3" cx="114.3" cy="350.8" r="2.1"/>
	<g>
		<circle class="st4" cx="93.4" cy="316.4" r="1.3"/>
		<circle class="st4" cx="80.8" cy="288.1" r="1.1"/>
	</g>
	<circle class="st3" cx="116.2" cy="291.8" r="2.1"/>
	<g>
		<circle class="st4" cx="44.3" cy="299.4" r="1.8"/>
		<circle class="st4" cx="101.8" cy="272.3" r="2.4"/>
	</g>
	<g>
		<circle class="st5" cx="82" cy="82" r="82"/>
		<g>
			<g>
				<polygon class="st6" points="82.6,34.2 86.5,38.7 91.1,35 94.1,40.1 99.4,37.3 101.5,42.8 107.1,41 107.6,46.8 113,46 113,52 
					119.4,52.2 118.7,58.1 124.6,59.4 122.6,65 128.1,67.3 125,72.4 130,75.7 126.1,80.1 130.4,84.2 125.7,87.9 129.2,92.8 
					124,95.6 126.6,100.9 120.9,102.8 122.5,108.5 116.6,109.3 117.2,115.2 111.2,114.9 110.7,120.8 104.9,119.5 103.3,125.2 
					97.9,122.9 95.3,128.3 90.3,125 86.8,129.8 82.6,125.7 78.3,129.8 74.8,125 69.8,128.3 67.2,122.9 61.8,125.2 60.2,119.5 
					54.4,120.8 53.9,114.9 47.9,115.2 48.5,109.3 42.6,108.5 44.2,102.8 38.5,100.9 41.1,95.6 35.9,92.8 39.4,87.9 34.7,84.2 
					39,80.1 35.1,75.7 40.1,72.4 37,67.3 42.5,65 40.4,59.4 46.2,58.1 44.8,52.2 50.3,52 50.3,46 56.6,46.8 57.8,41 63.6,42.8 
					65.7,37.3 70.9,40.1 74,35 78.6,38.7 				"/>
				<circle class="st7" cx="82.6" cy="82.1" r="35.4"/>
			</g>
			<polyline class="st8" points="82.6,34.2 86.5,38.7 91.1,35 94.1,40.1 99.4,37.3 101.5,42.8 107.1,41 107.6,46.8 113,46 113,52 
				119.4,52.2 118.7,58.1 124.6,59.4 122.6,65 128.1,67.3 125,72.4 130,75.7 126.1,80.1 130.4,84.2 125.7,87.9 129.2,92.8 124,95.6 
				126.6,100.9 120.9,102.8 122.5,108.5 116.6,109.3 117.2,115.2 111.2,114.9 110.7,120.8 104.9,119.5 103.3,125.2 97.9,122.9 
				95.3,128.3 90.3,125 86.8,129.8 82.6,125.7 			"/>
			<path class="st9" d="M82.6,46.7c19.5,0,35.4,15.8,35.4,35.4c0,19.6-15.9,35.4-35.4,35.4"/>
		</g>
	</g>
</g>
</svg>
